<?xml version="1.0" encoding="utf-8"?>
<!-- Generator: Adobe Illustrator 18.1.0, SVG Export Plug-In . SVG Version: 6.00 Build 0)  -->
<!DOCTYPE svg PUBLIC "-//W3C//DTD SVG 1.1//EN" "http://www.w3.org/Graphics/SVG/1.1/DTD/svg11.dtd">
<svg version="1.1" id="Layer_1" xmlns="http://www.w3.org/2000/svg" xmlns:xlink="http://www.w3.org/1999/xlink" x="0px" y="0px"
	 viewBox="0 0 443.3 116" enable-background="new 0 0 443.3 116" xml:space="preserve">
<g>
	<path fill="#524B5A" d="M134,75.6h5.4V42.7H134v-7.3h34.9V49h-7.8v-6.3h-13.6v13.5h14v7h-14v12.4h6.3v7.3H134V75.6z"/>
	<path fill="#524B5A" d="M168.4,67.1c0-8.6,6.5-16.3,16.8-16.3c10.4,0,16.8,7.6,16.8,16.3c0,8.6-6.5,16.3-16.8,16.3
		C174.8,83.4,168.4,75.9,168.4,67.1z M193.9,67.1c0-5.8-3.6-9.8-8.7-9.8s-8.7,4-8.7,9.8c0,5.8,3.6,9.8,8.7,9.8
		S193.9,72.8,193.9,67.1z"/>
	<path fill="#524B5A" d="M234.7,55.9c0,2.7-2.1,4.9-4.7,4.9c-2.4,0-4-1.4-4.6-2.8c-2.2,0.8-4.8,3.2-6.3,6v12.4h5.5v6.5h-18v-6.5h4.7
		V57.9h-4.7v-6.6h12.2v7.1c2.7-4.2,6-7.7,10-7.7C232.8,50.7,234.7,53.1,234.7,55.9z"/>
	<path fill="#524B5A" d="M238,76.4h4.7V57.9H238v-6.6h12.2v5c2.4-2.7,5.9-5.5,10.6-5.5c3.4,0,5.9,1.3,7.5,3.4c0.4,0.6,0.7,1.2,1,1.8
		c3-2.9,6.5-5.2,10.5-5.2c4.4,0,7.4,1.6,9,4.5c0.9,1.6,1.3,3.6,1.3,5.9v15.2h4.7v6.5H278v-6.5h4.2V63c0-1.2-0.1-2.2-0.5-3
		c-0.6-1.5-1.9-2.2-3.7-2.2c-2.6,0-5.3,1.5-7.7,3.5v15h4.2v6.5h-16.4v-6.5h4.3V63c0-1.2-0.1-2.2-0.5-3c-0.6-1.5-1.9-2.2-3.7-2.2
		c-2.6,0-5.3,1.5-7.7,3.5v15h4.2v6.5H238V76.4z"/>
	<path fill="#524B5A" d="M299.7,79.2h6.3V39.1h-6.3v-3.6h16.8v3.6h-6.3v22.7l22.6-22.7H326v-3.6h17.1v3.6h-5.4l-16.3,16.4l16.4,23.8
		h5.8v3.6H335l-16.6-24.7l-8.3,8.3v12.8h6.3v3.6h-16.8V79.2z"/>
	<path fill="#524B5A" d="M347.9,68.6c0.6,7.6,5.2,11.4,12.5,11.4c4.2,0,6.8-1.3,10.4-3.4l-0.4,3.7c-3.1,2-7,3-10.6,3
		c-9.6,0-15.8-6.5-15.8-15.6c0-8.3,5.5-15.8,14.6-15.8c8.7,0,13.5,6.8,13.5,14.2c0,1.1-0.1,1.7-0.2,2.4H347.9z M348,65.3h20.4
		c-0.4-5.9-3.7-10-10.1-10C353.1,55.3,348.7,59.2,348,65.3z"/>
	<path fill="#524B5A" d="M380.4,68.6c0.6,7.6,5.2,11.4,12.5,11.4c4.2,0,6.8-1.3,10.4-3.4l-0.4,3.7c-3.1,2-7,3-10.6,3
		c-9.6,0-15.8-6.5-15.8-15.6c0-8.3,5.5-15.8,14.6-15.8c8.7,0,13.5,6.8,13.5,14.2c0,1.1-0.1,1.7-0.2,2.4H380.4z M380.4,65.3h20.4
		c-0.4-5.9-3.7-10-10.1-10C385.5,55.3,381.2,59.2,380.4,65.3z"/>
	<path fill="#524B5A" d="M408.1,93.6h5V55.9h-5v-3.3h8.6v4.7c2.7-3.2,6-5.3,10.7-5.3c8,0,14.5,6.1,14.5,15.5
		c0,8.5-5.8,15.9-15.3,15.9c-3.7,0-7.3-1.4-9.9-3.7v14h6.3V97h-15V93.6z M438,67.6c0.1-7.2-4.5-12.2-10.9-12.2
		c-4.4,0-7.7,2.2-10.4,5.1v15.9c2.4,2.2,5.5,3.7,10,3.7C433.6,80.1,438,74.6,438,67.6z"/>
</g>
<g>
	<path fill-rule="evenodd" clip-rule="evenodd" fill="#524B5A" d="M95.8,23.5l-34-19.6c-5.3-3-11.8-3-17.1,0l-34,19.6
		C4.5,27,2.3,32.2,2.3,38.3v39.3c0,6.1,3.2,11.7,8.5,14.8l34,19.6c5.3,3,11.8,3,17.1,0l33.9-19.6c5.3-3,8.5-8.7,8.5-14.8V38.3
		C104.3,32.2,101.1,26.6,95.8,23.5z M73,86.6c0,1-0.7,1.7-1.6,1.7H35.3c-1,0-1.7-0.7-1.7-1.7v-7.4c0-0.9,0.3-1.7,1-2.4l4.3-4.2
		l2.6-24.2c0.1-0.7-0.2-1.3-0.7-1.7l-3.5-3.1c-0.7-0.6-1-1.5-1-2.4V29.4c0-1,0.7-1.8,1.7-1.8h5.3c0.9,0,1.8,0.8,1.8,1.7V32h4.4v-2.6
		c0-1,0.8-1.8,1.8-1.8h4.3c0.9,0,1.6,0.8,1.6,1.7V32h4.4v-2.5c0-1,1-1.9,2-1.9h5.2c0.9,0,1.9,0.8,1.9,1.7v12.2
		c0,0.8-0.4,1.5-0.9,2.1L66,46.7c-0.5,0.4-0.7,1-0.7,1.6L68,72.6l4.3,4.4c0.5,0.5,0.7,1.1,0.7,1.8V86.6z"/>
	<path fill-rule="evenodd" clip-rule="evenodd" fill="#524B5A" d="M53.4,61.2c-2.8-0.1-5,2.4-5,5.1v10.4c0,0.6,0.5,1.1,1.1,1.1H57
		c0.6,0,1.2-0.6,1.2-1.2V66.3C58.1,63.6,56.2,61.3,53.4,61.2z"/>
</g>
</svg>
