<?xml version="1.0" encoding="UTF-8" standalone="no"?>
<svg width="207px" height="37px" viewBox="0 0 207 37" version="1.1" xmlns="http://www.w3.org/2000/svg" xmlns:xlink="http://www.w3.org/1999/xlink" xmlns:sketch="http://www.bohemiancoding.com/sketch/ns">
    <!-- Generator: Sketch 3.0.3 (7891) - http://www.bohemiancoding.com/sketch -->
    <title>Hound Logo</title>
    <desc>Created with Sketch.</desc>
    <defs></defs>
    <g id="Page-1" stroke="none" stroke-width="1" fill="none" fill-rule="evenodd" sketch:type="MSPage">
        <g id="Products" sketch:type="MSArtboardGroup" transform="translate(-85.000000, -641.000000)">
            <g id="Hound-Logo" sketch:type="MSLayerGroup" transform="translate(86.000000, 642.000000)">
                <g id="Imported-Layers" fill="#9012FE" sketch:type="MSShapeGroup">
                    <path d="M34.1218157,14.7011429 C32.4582831,10.4802597 30.6442427,6.36831169 26.3659865,3.56171429 C26.0280449,5.38088312 25.606436,7.00088312 25.4540584,8.64612987 C25.2974742,10.3395325 24.5636315,11.3713766 22.9332854,11.8576104 C20.1736629,12.68 17.6664449,13.6417143 17.6341933,17.3235325 C17.6276494,18.1244156 16.1365933,18.9514805 15.2676674,19.6948571 C14.5146607,20.3395844 13.675182,20.8828571 12.5187955,21.7318961 C15.9094292,24.1396883 18.3825258,27.5335065 23.5745798,26.0654545 C22.88,29.0384935 22.4083775,31.5257662 21.6535011,33.9237403 C21.4871011,34.4525195 20.323236,34.9649351 19.6099596,34.9761558 C14.3188135,35.0607792 9.02439551,35.0827532 3.73371685,34.985974 C1.07458876,34.9368831 -0.0808629213,33.6708052 -0.090211236,31.0212987 C-0.12152809,21.9904416 -0.121060674,12.9591169 -0.090211236,3.92825974 C-0.0813303371,1.27454545 1.07178427,-0.0265974026 3.7201618,-0.049038961 C12.7482966,-0.125246753 21.7773663,-0.122909091 30.8055011,-0.0532467532 C33.4898697,-0.0322077922 34.6425169,1.23714286 34.6780404,3.86561039 C34.7261843,7.41231169 34.6901933,10.9604156 34.6901933,14.5075844 C34.5008899,14.5721039 34.3111191,14.6366234 34.1218157,14.7011429" id="Fill-2"></path>
                </g>
                <path d="M62.3097897,0.387367554 L55.774,0.387367554 L55.774,2.39478866 L60.0689475,2.39478866 L60.0689475,32.0392631 L55.774,32.0392631 L55.774,34 L66.4180003,34 L66.4180003,32.0392631 L62.3097897,32.0392631 L62.3097897,14.2058942 C65.6243687,11.8249994 67.0248951,11.1714205 69.5458425,11.1714205 L72.1134742,11.1714205 C74.074211,11.1714205 74.5877374,11.4048415 75.1012637,11.9183679 C75.7081585,12.5252626 75.9415795,13.3188942 75.9415795,14.9061574 L75.9415795,32.0392631 L71.7866847,32.0392631 L71.7866847,34 L82.4306849,34 L82.4306849,32.0392631 L78.1824217,32.0392631 L78.1824217,14.7661048 C78.1824217,12.8053679 77.9490006,11.3581573 77.0153164,10.3777889 C76.0816321,9.49078884 75.1479479,9.16399936 72.7203689,9.16399936 L70.0593688,9.16399936 C66.9782109,9.16399936 65.6710529,10.0509994 62.3097897,12.7586837 L62.3097897,0.387367554 Z M96.4818431,34 L101.99058,34 C104.604896,34 106.005422,33.7198947 107.125843,32.5994736 C108.666422,31.0588947 109.273317,29.0047893 109.273317,21.5819997 C109.273317,14.15921 108.666422,12.1517889 107.125843,10.5645257 C106.005422,9.49078884 104.604896,9.21068357 101.99058,9.21068357 L96.4818431,9.21068357 C93.8675272,9.21068357 92.4203166,9.49078884 91.3465798,10.5645257 C89.7593166,12.1517889 89.1524218,14.15921 89.1524218,21.5819997 C89.1524218,29.0047893 89.7593166,31.0588947 91.3465798,32.5994736 C92.4203166,33.7198947 93.8675272,34 96.4818431,34 Z M91.4866324,21.5819997 C91.4866324,14.5793679 92.0001587,13.1321574 92.933843,12.1517889 C93.6807903,11.4048415 94.5677904,11.2181047 96.6218957,11.2181047 L101.803843,11.2181047 C103.857949,11.2181047 104.791633,11.4048415 105.491896,12.1517889 C106.472264,13.1321574 106.985791,14.5793679 106.985791,21.5819997 C106.985791,28.6313157 106.472264,30.0785262 105.491896,31.0588947 C104.791633,31.7591578 103.857949,31.9925789 101.803843,31.9925789 L96.6218957,31.9925789 C94.5677904,31.9925789 93.6807903,31.7591578 92.933843,31.0588947 C92.0001587,30.0785262 91.4866324,28.6313157 91.4866324,21.5819997 Z M136.162633,34 L142.698423,34 L142.698423,32.0392631 L138.45016,32.0392631 L138.45016,9.21068357 L131.587581,9.21068357 L131.587581,11.1714205 L136.162633,11.1714205 L136.162633,29.0047893 C132.848054,31.4323684 131.447528,32.0392631 128.926581,32.0392631 L126.405633,32.0392631 C124.398212,32.0392631 123.884686,31.805842 123.371159,31.2923157 C122.764265,30.685421 122.530844,29.8917894 122.530844,28.3045262 L122.530844,9.21068357 L116.088422,9.21068357 L116.088422,11.1714205 L120.290001,11.1714205 L120.290001,28.3978946 C120.290001,30.4053157 120.523422,31.8525263 121.503791,32.7862105 C122.390791,33.7198947 123.324475,34.0466842 125.798738,34.0466842 L128.413054,34.0466842 C131.447528,34.0466842 132.754686,33.1596842 136.162633,30.4519999 L136.162633,34 Z M155.06895,9.21068357 L148.53316,9.21068357 L148.53316,11.1714205 L152.828107,11.1714205 L152.828107,32.0392631 L148.53316,32.0392631 L148.53316,34 L159.17716,34 L159.17716,32.0392631 L155.06895,32.0392631 L155.06895,14.2525784 C158.383529,11.8249994 159.784055,11.1714205 162.305002,11.1714205 L164.872634,11.1714205 C166.833371,11.1714205 167.346897,11.4048415 167.860424,11.9183679 C168.467318,12.5252626 168.700739,13.3188942 168.700739,14.9061574 L168.700739,32.0392631 L164.592529,32.0392631 L164.592529,34 L175.189845,34 L175.189845,32.0392631 L170.941582,32.0392631 L170.941582,14.7661048 C170.941582,12.8053679 170.70816,11.3581573 169.774476,10.3777889 C168.887476,9.49078884 167.907108,9.16399936 165.479529,9.16399936 L162.818529,9.16399936 C159.737371,9.16399936 158.476897,10.0509994 155.06895,12.7586837 L155.06895,9.21068357 Z M199.278108,34 L205.767214,34 L205.767214,32.0392631 L201.518951,32.0392631 L201.518951,0.387367554 L194.656371,0.387367554 L194.656371,2.34810445 L199.278108,2.34810445 L199.278108,12.7586837 C195.823477,10.0509994 194.516319,9.16399936 191.528529,9.16399936 L189.334371,9.16399936 C186.393266,9.16399936 184.946055,9.63084148 183.872319,10.7045783 C182.33174,12.2918415 181.911582,14.2992626 181.911582,21.5819997 C181.911582,28.9114209 182.33174,30.918842 183.872319,32.459421 C184.946055,33.5331579 186.393266,34.0466842 189.334371,34.0466842 L191.528529,34.0466842 C194.516319,34.0466842 195.823477,33.2063684 199.278108,30.4519999 L199.278108,34 Z M192.042056,32.0392631 L189.661161,32.0392631 C187.280266,32.0392631 186.346582,31.6191052 185.646319,30.8721578 C184.572582,29.8451052 184.245792,28.1644735 184.245792,21.5819997 C184.245792,14.9995258 184.572582,13.3655784 185.646319,12.2918415 C186.346582,11.5915784 187.280266,11.1714205 189.661161,11.1714205 L191.995371,11.1714205 C194.656371,11.1714205 196.19695,12.0584205 199.278108,14.2992626 L199.278108,28.9581051 C196.19695,31.1522631 194.703056,32.0392631 192.042056,32.0392631 Z" id="hound" fill="#9013FE" sketch:type="MSShapeGroup"></path>
            </g>
        </g>
    </g>
</svg>