<?xml version="1.0" encoding="utf-8"?>
<!DOCTYPE svg PUBLIC "-//W3C//DTD SVG 1.1//EN" "http://www.w3.org/Graphics/SVG/1.1/DTD/svg11.dtd">
<svg version="1.1" id="Layer_1" xmlns:sketch="http://www.bohemiancoding.com/sketch/ns"
	 xmlns="http://www.w3.org/2000/svg" xmlns:xlink="http://www.w3.org/1999/xlink" x="0px" y="0px" viewBox="-128.7 362 306.3 65.5"
	 enable-background="new -128.7 362 306.3 65.5" xml:space="preserve">
<g>
	<path id="path-2" fill="#FFFFFF" d="M55.7,364.5c-5.8,8.4-22.3,32.7-27.6,41c-0.7,1-0.4,2.4,0.5,3.2c1.3,1,3.1,2.4,4.4,3.5
		c1,0.7,2.3,0.7,3.3-0.1c9.5-8.2,11.4-9.7,17.2-15c2.3-2.1,5.8-2.1,8.1,0c7.6,6.8,11,9.4,17.3,15.1c0.9,0.8,2.3,0.9,3.2,0.1
		c1.4-1.1,3.3-2.5,4.6-3.5c1-0.8,1.2-2.1,0.5-3.2c-5.4-8.4-21.8-32.6-27.6-41C58.7,363,56.6,363,55.7,364.5L55.7,364.5z"/>
</g>
<g id="Page-1" sketch:type="MSPage">
	<g id="upcase-logo-gray" sketch:type="MSArtboardGroup">
		<g id="Upcase-Logo-gray" transform="translate(11.647059, 10.352941)" sketch:type="MSLayerGroup">
			<path id="Fill-1" sketch:type="MSShapeGroup" fill="#5F5F5F" d="M-139.9,393.8v-28.4c0-0.9,0.7-1.6,1.6-1.6h8.4
				c0.9,0,1.6,0.7,1.6,1.6v28.1c0,8.5,4.3,13,11.3,13s11.3-4.3,11.3-12.6v-28.5c0-0.9,0.7-1.6,1.6-1.6h8.4c0.9,0,1.6,0.7,1.6,1.6v28
				c0,15.9-8.9,23.7-23,23.7C-131.3,417.1-139.9,409.2-139.9,393.8"/>
			<path id="Fill-2" sketch:type="MSShapeGroup" fill="#5F5F5F" d="M-81.2,365.4c0-0.9,0.7-1.6,1.6-1.6h19.9
				c12.5,0,20.1,7.4,20.1,18.1v0.2c0,12.1-9.4,18.4-21.2,18.4h-8.8v14.2c0,0.9-0.7,1.6-1.6,1.6h-8.4c-0.9,0-1.6-0.7-1.6-1.6V365.4
				L-81.2,365.4z M-60.6,390.3c5.8,0,9.1-3.4,9.1-7.9v-0.1c0-5.2-3.6-7.9-9.4-7.9h-7.4c-0.9,0-1.6,0.7-1.6,1.6v12.9
				c0,0.9,0.7,1.6,1.6,1.6H-60.6L-60.6,390.3z"/>
			<path id="Fill-3" sketch:type="MSShapeGroup" fill="#5F5F5F" d="M-31.9,390.2V390c0-14.9,11.2-27.1,27.4-27.1
				c9.2,0,14.1,3,19.1,6.7c0.7,0.5,0.8,1.5,0.3,2.2l-4.7,6.7c-0.5,0.7-1.5,0.8-2.2,0.4c-4-2.7-7.9-5.3-12.7-5.3
				c-8.8,0-15.2,7.3-15.2,16.3v0.4c0,9,7.3,16.7,16.3,16.3c4.9-0.2,8.1-1.7,11.4-4.9c0.6-0.6,1.5-0.6,2.1-0.1l5.6,4.9
				c0.6,0.6,0.7,1.6,0.1,2.2c-4.8,5.4-11.2,8.5-20.7,8.5C-20.4,417.2-31.9,405.2-31.9,390.2"/>
			<path id="Fill-4" sketch:type="MSShapeGroup" fill="#5F5F5F" d="M76.6,407l5.5-5.2c0.6-0.6,1.6-0.5,2.2,0c4,3.8,8.6,5,14.1,5
				c4.7,0,7.6-1.9,7.6-4.9v-0.2c0-2.9-1.8-4.4-10.6-6.7c-10.6-2.7-17.4-5.6-17.4-16v-0.2c0-9.5,7.6-15.8,18.4-15.8
				c7.1,0,13.2,2.1,18.3,5.7c0.7,0.5,0.8,1.5,0.4,2.2l-4.3,6.2c-0.5,0.7-1.4,0.8-2.1,0.4c-4.2-2.7-8.3-4.3-12.4-4.3
				c-4.4,0-6.7,2-6.7,4.6v0.2c0,3.4,2.2,4.6,11.3,6.9c10.6,2.8,16.6,6.6,16.6,15.7v0.2c0,10.4-7.9,16.3-19.3,16.3
				c-7.4,0-16-2.1-21.5-7.7C75.9,408.6,75.9,407.6,76.6,407"/>
			<path id="Fill-5" sketch:type="MSShapeGroup" fill="#5F5F5F" d="M126,365.4c0-0.9,0.7-1.6,1.6-1.6H164c0.9,0,1.6,0.7,1.6,1.6v7.1
				c0,0.9-0.7,1.6-1.6,1.6h-25c-0.9,0-1.6,0.7-1.6,1.6v7.5c0,0.9,0.7,1.6,1.6,1.6h21.6c0.9,0,1.6,0.7,1.6,1.6v7.1
				c0,0.9-0.7,1.6-1.6,1.6H139c-0.9,0-1.6,0.7-1.6,1.6v7.9c0,0.9,0.7,1.6,1.6,1.6h25.4c0.9,0,1.6,0.7,1.6,1.6v7.1
				c0,0.9-0.7,1.6-1.6,1.6h-36.8c-0.9,0-1.6-0.7-1.6-1.6V365.4"/>
			<g id="chevron" transform="translate(156.588235, 0.000000)">
				<g id="Clip-7" sketch:type="MSShapeGroup">

						<linearGradient id="path-2_2_" gradientUnits="userSpaceOnUse" x1="-445.4029" y1="776.5289" x2="-445.4029" y2="775.686" gradientTransform="matrix(60.0241 0 0 -49.3108 26624.3418 38644.2773)">
						<stop  offset="0" style="stop-color:#487BF6"/>
						<stop  offset="1" style="stop-color:#0093CB"/>
					</linearGradient>
					<path id="path-2_1_" fill="url(#path-2_2_)" d="M-112.6,354.1c-5.8,8.4-22.3,32.7-27.6,41c-0.7,1-0.4,2.4,0.5,3.2
						c1.3,1,3.1,2.4,4.4,3.5c1,0.7,2.3,0.7,3.3-0.1c9.5-8.2,11.4-9.7,17.2-15c2.3-2.1,5.8-2.1,8.1,0c7.6,6.8,11,9.4,17.3,15.1
						c0.9,0.8,2.3,0.9,3.2,0.1c1.4-1.1,3.3-2.5,4.6-3.5c1-0.8,1.2-2.1,0.5-3.2c-5.4-8.4-21.8-32.6-27.6-41
						C-109.5,352.7-111.6,352.7-112.6,354.1L-112.6,354.1z"/>
				</g>
			</g>
		</g>
	</g>
</g>
</svg>
