<svg width="254" height="35" viewBox="0 0 254 35" xmlns="http://www.w3.org/2000/svg"><title>Artboard 1</title><desc>Created with Sketch.</desc><g fill="none" fill-rule="evenodd"><g><g><g id="Shape" fill="#fff"><path d="M65.765 9.846c-.02-.183-.156-.337-.406-.337H65c-.203 0-.315.088-.384.223l-4.96 10.642h-.068l-4.96-10.642c-.066-.135-.203-.224-.382-.224h-.362c-.247 0-.382.154-.403.336l-2.684 15.15c-.046.316.135.52.43.52h2.027c.205 0 .384-.182.406-.34l1.308-8.544h.066l3.99 8.86c.07.136.182.25.384.25h.407c.202 0 .337-.114.382-.25l3.946-8.86h.066l1.33 8.545c.047.157.225.34.428.34h2.053c.295 0 .474-.204.407-.52l-2.662-15.15zM79.722 9.755c-.068-.135-.156-.247-.382-.247h-.228c-.2 0-.315.11-.382.247L71.718 24.93c-.135.292.044.586.384.586h1.96c.363 0 .565-.226.656-.452l.61-1.35 1.6-3.588 2.207-4.96h.068l1.066 2.346.01.022 1.176 2.592h-.012l1.605 3.57.617 1.367c.157.315.316.452.653.452h1.96c.34 0 .52-.294.385-.586L79.722 9.754zM102.766 14.58c0-2.683-2.21-4.848-4.915-4.848H91.4c-.247 0-.428.203-.428.43v14.925c0 .226.18.43.428.43h2.075c.225 0 .428-.204.428-.43v-5.75h2.503l3 5.976c.044.09.157.203.36.203h2.365c.386 0 .542-.36.386-.655l-3.088-5.725c1.963-.79 3.338-2.48 3.338-4.556zM97.6 16.922H93.93v-4.485H97.6c1.197 0 2.235.99 2.235 2.186 0 1.263-1.038 2.3-2.234 2.3zM116.768 9.732h-9.854c-.247 0-.428.203-.428.43v1.848c0 .225.18.43.428.43h3.45v12.647c0 .226.203.43.43.43h2.096c.226 0 .43-.204.43-.43V12.44h3.45c.246 0 .427-.205.427-.43v-1.85c-.002-.225-.182-.428-.43-.428zM124.32 9.732h-2.1c-.225 0-.426.203-.426.43v14.925c0 .226.2.43.426.43h2.1c.223 0 .43-.204.43-.43V10.16c0-.225-.207-.428-.43-.428zM137.06 9.755c-.07-.135-.16-.247-.386-.247h-.225c-.204 0-.316.11-.385.247l-7.013 15.175c-.135.292.046.586.384.586h1.963c.358 0 .56-.226.65-.452l.606-1.33h-.002l1.608-3.607.844-1.897.27-.604 1.096-2.458h.068l2.254 4.96h-.016l1.584 3.52.64 1.416c.16.315.32.452.657.452h1.96c.336 0 .518-.294.382-.586L137.06 9.755zM156.99 22.81h-5.752V10.16c0-.225-.203-.428-.428-.428h-2.073c-.25 0-.43.203-.43.43v14.925c0 .226.18.43.43.43h8.253c.247 0 .43-.204.43-.43v-1.85c0-.224-.183-.427-.43-.427z"/></g><g id="Shape" fill="#fff"><path d="M180.35 21.502c-.133-.135-.38-.157-.56 0-.95.768-2.1 1.286-3.452 1.286-2.885 0-5.048-2.39-5.048-5.21 0-2.838 2.14-5.252 5.026-5.252 1.263 0 2.524.497 3.473 1.332.18.18.404.18.56 0l1.376-1.42c.182-.183.182-.452-.02-.634-1.533-1.376-3.18-2.095-5.458-2.095-4.51 0-8.138 3.628-8.138 8.138s3.63 8.094 8.138 8.094c2.007 0 3.947-.697 5.48-2.186.16-.157.202-.45.024-.608l-1.4-1.446zM193.836 9.51c-4.513 0-8.095 3.628-8.095 8.138s3.583 8.094 8.096 8.094c4.51 0 8.116-3.584 8.116-8.094s-3.606-8.14-8.116-8.14zm0 13.3c-2.844 0-5.163-2.32-5.163-5.162 0-2.84 2.32-5.208 5.163-5.208 2.84 0 5.185 2.367 5.185 5.208 0 2.84-2.344 5.162-5.184 5.162zM212.908 9.733h-5.344c-.225 0-.406.204-.406.43v14.926c0 .224.182.426.406.426h5.344c4.352 0 7.913-3.54 7.913-7.913 0-4.33-3.56-7.87-7.912-7.87zm-.27 13.033h-2.57V12.462h2.57c2.93 0 5.074 2.208 5.074 5.14 0 2.955-2.144 5.164-5.074 5.164zM235.66 9.733h-9.18c-.246 0-.428.204-.428.43v14.926c0 .224.182.426.43.426h9.177c.247 0 .428-.202.428-.427v-1.85c0-.228-.18-.43-.43-.43h-6.67v-3.944h5.565c.228 0 .43-.182.43-.43v-1.87c0-.228-.202-.43-.43-.43h-5.566V12.44h6.672c.247 0 .428-.202.428-.43v-1.848c0-.224-.18-.43-.43-.43zM253.086 24.887l-4.688-7.465 4.532-7.057c.18-.292 0-.632-.384-.632h-2.613c-.182 0-.316.113-.362.204l-2.93 4.78h-.023l-2.885-4.78c-.068-.09-.184-.204-.362-.204h-2.615c-.382 0-.562.34-.382.632l4.51 7.057-4.69 7.465c-.18.29 0 .63.403.63h2.438c.18 0 .315-.113.384-.203l3.18-5.163h.064l3.226 5.164c.047.09.203.202.385.202h2.434c.38 0 .56-.316.38-.63z"/></g><g fill="#EB3F32"><path d="M18.18 30.297c-.353.353-.932.353-1.285 0l-2.048-2.048c-.353-.355-.933-.355-1.285 0l-.698.697c-.355.354-.355.933 0 1.285l2.048 2.05 1.286 1.284.697.698c.353.354.932.354 1.286 0l.7-.698c.35-.352.93-.932 1.284-1.285l2.048-2.048c.353-.353.353-.93 0-1.285l-.7-.698c-.35-.355-.93-.355-1.283 0l-2.05 2.047zM30.17 17.023c.353.354.353.932 0 1.287l-2.05 2.047c-.35.354-.35.933 0 1.285l.7.7c.353.353.93.353 1.285 0l2.046-2.05 1.288-1.284.696-.698c.354-.355.354-.932 0-1.287l-.696-.697c-.354-.353-.933-.933-1.287-1.285l-2.045-2.047c-.355-.354-.933-.354-1.286 0l-.7.697c-.353.354-.353.933 0 1.287l2.05 2.046zM16.812 4.953c.353-.353.93-.353 1.285 0L20.145 7c.353.353.933.353 1.284 0l.698-.698c.356-.354.356-.933 0-1.286L20.08 2.968l-1.284-1.285-.7-.7c-.353-.352-.93-.352-1.284 0l-.698.7c-.354.354-.933.932-1.284 1.285l-2.05 2.048c-.353.353-.353.933 0 1.286l.697.698c.354.353.933.353 1.287 0l2.048-2.047zM4.824 18.227c-.354-.354-.354-.932 0-1.286l2.048-2.047c.353-.354.353-.933 0-1.285l-.698-.698c-.354-.354-.933-.354-1.287 0L2.84 14.956l-1.285 1.286-.7.698c-.352.355-.352.932 0 1.286l.7.698 1.285 1.284 2.046 2.048c.354.354.933.354 1.287 0l.698-.697c.354-.356.354-.933 0-1.287l-2.046-2.046z"/></g></g></g></g></svg>