<svg width="99" height="99" viewBox="0 0 99 99" xmlns="http://www.w3.org/2000/svg"><title>tile-logo</title><desc>Created with Sketch.</desc><g fill="none" fill-rule="evenodd"><g fill="#fff"><path d="M80.374 66.973c-.434-.793-2.83-5.258-8.61-5.258-3.842 0-6.93 2.246-8.6 5.258-.033.056-.047.115-.047.172 0 .176.136.332.31.333h16.682c.18 0 .31-.154.31-.328 0-.058-.014-.12-.046-.177"/><path d="M87.54 72.453c-.015.232-.223.426-.457.426h-24.54c-.234 0-.408.168-.41.388l.01.082c.86 4.532 4.84 7.973 9.622 7.973 2.438 0 4.667-.902 6.38-2.38.183-.156.528-.296.768-.295h6.545c.17.002.26.085.26.203 0 .047-.014.1-.044.156-2.672 4.95-7.905 8.318-13.91 8.318-4.36 0-8.31-1.772-11.172-4.634s-4.633-6.814-4.633-11.172c0-4.22 1.643-8.19 4.626-11.176 2.984-2.983 6.956-4.628 11.18-4.628 4.355 0 8.307 1.772 11.17 4.634 2.86 2.862 4.634 6.813 4.634 11.17 0 .316-.013.627-.03.935zm-35.58 14.45c0 .248-.2.448-.447.448h-5.16c-.25 0-.45-.2-.45-.448V46.756c0-.25.2-.45.45-.45h5.16c.246 0 .447.2.447.45v40.146zm-14.198-33.67c-1.92 0-3.477-1.56-3.477-3.48s1.556-3.474 3.477-3.474c1.92 0 3.474 1.554 3.474 3.474 0 1.918-1.553 3.48-3.474 3.48zm3.027 33.675c0 .25-.2.448-.448.448H35.18c-.25 0-.45-.2-.45-.448V56.115c0-.247.2-.45.45-.45h5.162c.247 0 .447.203.447.45v30.793zM23.73 34.895c-6.076 0-11-4.925-11-11s4.924-11 11-11c6.075 0 11 4.925 11 11s-4.925 11-11 11zm6.175 26.38c0 .247-.2.448-.45.448H17.478v9.795c0 5.393 4.385 9.778 9.778 9.778h2.2c.25 0 .45.202.45.447v5.16c0 .248-.2.448-.45.448h-2.2c-8.73 0-15.83-7.1-15.83-15.832V46.754c0-.248.2-.448.446-.448h5.16c.25 0 .446.2.446.448v8.912h11.977c.25 0 .45.2.45.45v5.16zM71.843 0H27.158C12.183 0 0 12.183 0 27.158v44.684C0 86.817 12.183 99 27.158 99H71.84C86.817 99 99 86.816 99 71.84V27.158C99 12.182 86.817 0 71.843 0z"/></g></g></svg>